
<svg width="800" height="405" viewBox="0 0 800 405"
     xmlns="http://www.w3.org/2000/svg">

<style>

.label {
    font: 18px sans-serif;
    fill: #374151;
}

.value {
    font: bold 18px sans-serif;
    fill: #111827;
}

</style>

<rect width="100%" height="100%" fill="white"/>


<text x="135" y="57"
      text-anchor="end"
      class="label">
    Bronze
</text>

<rect x="150"
      y="35"
      rx="10"
      ry="10"
      width="500.0"
      height="32"
      fill="#CD7F32"/>

<text x="665.0"
      y="57"
      class="value">
    55
</text>


<text x="135" y="107"
      text-anchor="end"
      class="label">
    Silver
</text>

<rect x="150"
      y="85"
      rx="10"
      ry="10"
      width="318.1818181818182"
      height="32"
      fill="#C0C0C0"/>

<text x="483.1818181818182"
      y="107"
      class="value">
    35
</text>


<text x="135" y="157"
      text-anchor="end"
      class="label">
    Gold
</text>

<rect x="150"
      y="135"
      rx="10"
      ry="10"
      width="363.6363636363636"
      height="32"
      fill="#FFD700"/>

<text x="528.6363636363636"
      y="157"
      class="value">
    40
</text>


<text x="135" y="207"
      text-anchor="end"
      class="label">
    Platinum
</text>

<rect x="150"
      y="185"
      rx="10"
      ry="10"
      width="72.72727272727272"
      height="32"
      fill="#58D3F7"/>

<text x="237.72727272727272"
      y="207"
      class="value">
    8
</text>


<text x="135" y="257"
      text-anchor="end"
      class="label">
    Diamond
</text>

<rect x="150"
      y="235"
      rx="10"
      ry="10"
      width="18.18181818181818"
      height="32"
      fill="#00BFFF"/>

<text x="183.1818181818182"
      y="257"
      class="value">
    2
</text>


<text x="135" y="307"
      text-anchor="end"
      class="label">
    Ruby
</text>

<rect x="150"
      y="285"
      rx="10"
      ry="10"
      width="9.09090909090909"
      height="32"
      fill="#FF007F"/>

<text x="174.0909090909091"
      y="307"
      class="value">
    1
</text>


<text x="135" y="357"
      text-anchor="end"
      class="label">
    Unrated
</text>

<rect x="150"
      y="335"
      rx="10"
      ry="10"
      width="9.09090909090909"
      height="32"
      fill="#9CA3AF"/>

<text x="174.0909090909091"
      y="357"
      class="value">
    1
</text>

</svg>