
<svg width="800" height="355" viewBox="0 0 800 355"
     xmlns="http://www.w3.org/2000/svg">

<style>

.label {
    font: 18px sans-serif;
    fill: #374151;
}

.value {
    font: bold 18px sans-serif;
    fill: #111827;
}

</style>

<rect width="100%" height="100%" fill="white"/>


<text x="135" y="57"
      text-anchor="end"
      class="label">
    Lv0
</text>

<rect x="150"
      y="35"
      rx="10"
      ry="10"
      width="500.0"
      height="32"
      fill="#9CA3AF"/>

<text x="665.0"
      y="57"
      class="value">
    29
</text>


<text x="135" y="107"
      text-anchor="end"
      class="label">
    Lv1
</text>

<rect x="150"
      y="85"
      rx="10"
      ry="10"
      width="189.65517241379308"
      height="32"
      fill="#7DD3FC"/>

<text x="354.6551724137931"
      y="107"
      class="value">
    11
</text>


<text x="135" y="157"
      text-anchor="end"
      class="label">
    Lv2
</text>

<rect x="150"
      y="135"
      rx="10"
      ry="10"
      width="379.31034482758616"
      height="32"
      fill="#60A5FA"/>

<text x="544.3103448275862"
      y="157"
      class="value">
    22
</text>


<text x="135" y="207"
      text-anchor="end"
      class="label">
    Lv3
</text>

<rect x="150"
      y="185"
      rx="10"
      ry="10"
      width="293.10344827586204"
      height="32"
      fill="#818CF8"/>

<text x="458.10344827586204"
      y="207"
      class="value">
    17
</text>


<text x="135" y="257"
      text-anchor="end"
      class="label">
    Lv4
</text>

<rect x="150"
      y="235"
      rx="10"
      ry="10"
      width="120.6896551724138"
      height="32"
      fill="#A78BFA"/>

<text x="285.6896551724138"
      y="257"
      class="value">
    7
</text>


<text x="135" y="307"
      text-anchor="end"
      class="label">
    Lv5
</text>

<rect x="150"
      y="285"
      rx="10"
      ry="10"
      width="17.241379310344826"
      height="32"
      fill="#C084FC"/>

<text x="182.24137931034483"
      y="307"
      class="value">
    1
</text>

</svg>