
<svg width="800" height="410" viewBox="0 0 800 410"
     xmlns="http://www.w3.org/2000/svg">

<style>
.title {
    font: bold 28px sans-serif;
    fill: #111827;
}

.label {
    font: 18px sans-serif;
    fill: #374151;
}

.value {
    font: bold 18px sans-serif;
    fill: #111827;
}
</style>

<rect width="100%" height="100%" fill="white"/>

<text x="400.0" y="40"
      text-anchor="middle"
      class="title">
    Programmers Solved Problems
</text>


<text x="135" y="92"
      text-anchor="end"
      class="label">
    Lv0
</text>

<rect x="150"
      y="70"
      rx="10"
      ry="10"
      width="500.0"
      height="32"
      fill="#9CA3AF"/>

<text x="665.0"
      y="92"
      class="value">
    29
</text>


<text x="135" y="142"
      text-anchor="end"
      class="label">
    Lv1
</text>

<rect x="150"
      y="120"
      rx="10"
      ry="10"
      width="189.65517241379308"
      height="32"
      fill="#7DD3FC"/>

<text x="354.6551724137931"
      y="142"
      class="value">
    11
</text>


<text x="135" y="192"
      text-anchor="end"
      class="label">
    Lv2
</text>

<rect x="150"
      y="170"
      rx="10"
      ry="10"
      width="275.8620689655172"
      height="32"
      fill="#60A5FA"/>

<text x="440.8620689655172"
      y="192"
      class="value">
    16
</text>


<text x="135" y="242"
      text-anchor="end"
      class="label">
    Lv3
</text>

<rect x="150"
      y="220"
      rx="10"
      ry="10"
      width="258.62068965517244"
      height="32"
      fill="#818CF8"/>

<text x="423.62068965517244"
      y="242"
      class="value">
    15
</text>


<text x="135" y="292"
      text-anchor="end"
      class="label">
    Lv4
</text>

<rect x="150"
      y="270"
      rx="10"
      ry="10"
      width="86.20689655172414"
      height="32"
      fill="#A78BFA"/>

<text x="251.20689655172413"
      y="292"
      class="value">
    5
</text>


<text x="135" y="342"
      text-anchor="end"
      class="label">
    Lv5
</text>

<rect x="150"
      y="320"
      rx="10"
      ry="10"
      width="17.241379310344826"
      height="32"
      fill="#C084FC"/>

<text x="182.24137931034483"
      y="342"
      class="value">
    1
</text>

</svg>